<svg width="76" height="51" viewBox="0 0 76 51" fill="none" xmlns="http://www.w3.org/2000/svg">
<path fill-rule="evenodd" clip-rule="evenodd" d="M0.657551 48.1865C0.274452 48.1064 0 47.7683 0 47.3765V2.56259C0 2.10563 0.370113 1.73507 0.826669 1.73507H10.3146C10.7711 1.73507 11.1413 2.10547 11.1413 2.56259V6.70832C12.4533 5.23434 14.0063 4.01573 15.8003 3.05249C18.5688 1.49856 21.6748 0.72168 25.1185 0.72168C28.5622 0.72168 31.6682 1.4648 34.4367 2.9512C37.0639 4.3618 39.1742 6.31989 40.7677 8.8258C42.5349 6.36838 44.7461 4.44405 47.401 3.05249C50.3046 1.49856 53.478 0.72168 56.9218 0.72168C60.433 0.72168 63.6065 1.4648 66.4425 2.9512C69.2785 4.4376 71.5404 6.5319 73.2285 9.23443C74.9167 11.937 75.7607 15.18 75.7607 18.9635V50.1716L65.446 50.38C64.9896 50.38 64.6194 50.0094 64.6194 49.5524V21.3957C64.6194 18.1527 63.6065 15.6529 61.5809 13.8962C59.5552 12.072 57.0568 11.1601 54.0858 11.1601C52.1277 11.1601 50.3383 11.5654 48.7177 12.376C47.0971 13.1869 45.8141 14.3692 44.8689 15.9231C44.1049 17.1245 43.6496 18.5467 43.5031 20.1895C43.4958 20.2715 43.4778 20.3496 43.4509 20.4231V49.5524C43.4509 50.0094 43.0808 50.38 42.6242 50.38H33.1364C32.6799 50.38 32.3097 50.0094 32.3097 49.5524V21.3957C32.3097 18.1527 31.2969 15.6529 29.2712 13.8962C27.2455 12.072 24.7472 11.1601 21.7761 11.1601C19.7504 11.1601 17.9273 11.5654 16.3068 12.376C14.7538 13.1869 13.5045 14.3692 12.5592 15.9231C11.8265 17.0754 11.3777 18.4305 11.2129 19.9888C11.2027 20.0853 11.1779 20.1765 11.1413 20.2605V49.3616C11.1413 49.8868 10.659 50.279 10.1455 50.1716L0.657551 48.1865Z" fill="#3A5041"/>
</svg>
