<svg width="366" height="71" viewBox="0 0 366 71" fill="none" xmlns="http://www.w3.org/2000/svg">
<rect x="0.390323" y="0.390323" width="70.2581" height="70.2194" fill="white"/>
<rect width="64.0129" height="39.0323" transform="translate(3.90332 16.3936)" fill="white"/>
<g clip-path="url(#clip0_2_1281)">
<path d="M41.1897 45.8729H30.6343V26.9033H41.1899L41.1897 45.8729Z" fill="#FF5F00"/>
<path d="M31.3038 36.3885C31.3038 32.5405 33.1055 29.1127 35.9112 26.9037C33.7874 25.2291 31.1607 24.3202 28.4562 24.3242C21.794 24.3242 16.3936 29.7255 16.3936 36.3885C16.3936 43.0514 21.794 48.4527 28.4562 48.4527C31.1608 48.4567 33.7876 47.5479 35.9114 45.8733C33.1059 43.6646 31.3038 40.2366 31.3038 36.3885Z" fill="#EB001B"/>
<path d="M55.4306 36.3885C55.4306 43.0514 50.0302 48.4527 43.368 48.4527C40.6631 48.4567 38.036 47.5478 35.9119 45.8733C38.7183 43.6642 40.52 40.2366 40.52 36.3885C40.52 32.5403 38.7183 29.1127 35.9119 26.9037C38.036 25.2291 40.663 24.3203 43.3678 24.3242C50.03 24.3242 55.4304 29.7255 55.4304 36.3885" fill="#F79E1B"/>
</g>
<rect x="0.390323" y="0.390323" width="70.2581" height="70.2194" stroke="#D3D3D3" stroke-width="0.780645"/>
<rect x="98.3903" y="0.390323" width="70.2581" height="70.2194" fill="white"/>
<rect width="64.0129" height="39.0323" transform="translate(101.903 16.3936)" fill="white"/>
<g clip-path="url(#clip1_2_1281)">
<path d="M134.94 33.2612C134.911 35.5086 136.942 36.7628 138.473 37.5084C140.045 38.2736 140.573 38.7642 140.567 39.4483C140.555 40.4954 139.313 40.9575 138.15 40.9755C136.122 41.007 134.943 40.4279 134.005 39.9899L133.274 43.4089C134.215 43.8425 135.957 44.2206 137.763 44.2371C142.003 44.2371 144.777 42.1442 144.792 38.8992C144.808 34.781 139.095 34.553 139.134 32.7121C139.148 32.1541 139.68 31.5585 140.848 31.4069C141.425 31.3304 143.02 31.2719 144.828 32.1045L145.537 28.7965C144.565 28.4424 143.316 28.1034 141.76 28.1034C137.769 28.1034 134.962 30.2247 134.94 33.2612ZM152.356 28.3884C151.582 28.3884 150.929 28.84 150.638 29.5331L144.582 43.994H148.818L149.662 41.6641H154.839L155.328 43.994H159.062L155.804 28.3884H152.356ZM152.949 32.6041L154.171 38.4641H150.823L152.949 32.6041ZM129.803 28.3884L126.463 43.994H130.5L133.838 28.3884H129.803ZM123.83 28.3884L119.628 39.0102L117.928 29.9787C117.729 28.9705 116.941 28.3884 116.066 28.3884H109.197L109.101 28.8415C110.511 29.1476 112.113 29.6411 113.084 30.1692C113.678 30.4918 113.848 30.7738 114.043 31.5405L117.262 43.994H121.529L128.07 28.3884H123.83Z" fill="url(#paint0_linear_2_1281)"/>
</g>
<rect x="98.3903" y="0.390323" width="70.2581" height="70.2194" stroke="#D3D3D3" stroke-width="0.780645"/>
<rect x="196.39" y="0.390323" width="70.2581" height="70.2194" fill="white"/>
<rect width="64.0129" height="39.0323" transform="translate(199.903 16.3936)" fill="white"/>
<g clip-path="url(#clip2_2_1281)">
<path d="M230.409 35.6727V40.6868H228.827V28.3096H233.023C234.035 28.2898 235.007 28.6748 235.744 29.3854C236.481 30.0467 236.894 31.0041 236.874 31.9912C236.894 32.988 236.481 33.9455 235.744 34.6166C235.007 35.3174 234.103 35.6727 233.033 35.6727H230.409ZM230.409 29.8296V34.1527H233.062C233.651 34.1725 234.221 33.9356 234.624 33.5112C235.459 32.7018 235.469 31.3693 234.663 30.5304L234.624 30.4909C234.221 30.0566 233.651 29.8197 233.062 29.8394L230.409 29.8296ZM240.519 31.9418C241.688 31.9418 242.612 32.2577 243.29 32.8795C243.968 33.5112 244.302 34.3699 244.302 35.4655V40.677H242.789V39.5024H242.72C242.062 40.4697 241.197 40.9533 240.107 40.9533C239.183 40.9533 238.397 40.677 237.778 40.1242C237.169 39.611 236.825 38.851 236.845 38.0515C236.845 37.173 237.179 36.4821 237.837 35.959C238.495 35.4359 239.38 35.1792 240.48 35.1792C241.423 35.1792 242.189 35.3569 242.799 35.6925V35.3273C242.799 34.7844 242.563 34.2712 242.15 33.9257C241.728 33.5507 241.187 33.3434 240.627 33.3434C239.743 33.3434 239.045 33.7184 238.525 34.4686L237.13 33.5901C237.886 32.4945 239.016 31.9418 240.519 31.9418ZM238.476 38.091C238.476 38.5055 238.672 38.8904 238.996 39.1273C239.35 39.4037 239.782 39.5517 240.224 39.5419C240.893 39.5419 241.531 39.2754 242.003 38.8016C242.524 38.3081 242.789 37.7258 242.789 37.0546C242.298 36.6598 241.61 36.4624 240.726 36.4624C240.087 36.4624 239.547 36.6203 239.114 36.9263C238.692 37.2421 238.476 37.6271 238.476 38.091ZM252.987 32.2182L247.701 44.4178H246.07L248.035 40.1538L244.557 32.228H246.277L248.782 38.3081H248.821L251.268 32.228L252.987 32.2182Z" fill="#5F6368"/>
<path d="M224.013 34.587C224.013 34.1034 223.974 33.6198 223.895 33.146H217.224V35.88H221.046C220.889 36.7585 220.378 37.5481 219.631 38.0416V39.8183H221.911C223.247 38.5845 224.013 36.7585 224.013 34.587Z" fill="#4285F4"/>
<path d="M217.224 41.5355C219.13 41.5355 220.742 40.9038 221.911 39.8181L219.631 38.0414C218.993 38.4757 218.177 38.7225 217.224 38.7225C215.377 38.7225 213.815 37.469 213.255 35.791H210.907V37.6269C212.105 40.0155 214.552 41.5355 217.224 41.5355Z" fill="#34A853"/>
<path d="M213.255 35.7911C212.96 34.9127 212.96 33.9553 213.255 33.067V31.241H210.907C210.408 32.2289 210.148 33.3212 210.148 34.429C210.148 35.5369 210.408 36.6292 210.907 37.6171L213.255 35.7911Z" fill="#FBBC04"/>
<path d="M217.224 30.1355C218.236 30.1157 219.209 30.5007 219.936 31.2014L221.95 29.1781C220.673 27.964 218.983 27.3027 217.224 27.3225C214.552 27.3225 212.105 28.8425 210.907 31.2409L213.255 33.0768C213.815 31.389 215.377 30.1355 217.224 30.1355Z" fill="#EA4335"/>
</g>
<rect x="196.39" y="0.390323" width="70.2581" height="70.2194" stroke="#D3D3D3" stroke-width="0.780645"/>
<rect x="294.39" y="0.390323" width="70.2581" height="70.2194" fill="white"/>
<rect width="64.0129" height="39.0323" transform="translate(297.903 16.3936)" fill="white"/>
<g clip-path="url(#clip3_2_1281)">
<path d="M322.269 40.844C322.016 41.4349 321.702 41.9982 321.334 42.525C320.844 43.2266 320.442 43.709 320.135 43.9795C319.653 44.418 319.141 44.6446 318.593 44.6592C318.198 44.6592 317.723 44.5496 317.168 44.3157C316.683 44.1053 316.161 43.9911 315.633 43.9795C315.09 43.9893 314.554 44.1034 314.054 44.3157C313.491 44.5422 313.038 44.6592 312.687 44.6738C312.161 44.6957 311.635 44.4619 311.109 43.9722C310.772 43.6798 310.356 43.1755 309.851 42.4665C309.286 41.6541 308.838 40.7658 308.521 39.828C308.149 38.7463 307.958 37.7011 307.958 36.6852C307.958 35.5231 308.207 34.5218 308.711 33.6812C309.093 33.0221 309.636 32.4712 310.29 32.0806C310.935 31.6917 311.671 31.4823 312.424 31.474C312.841 31.474 313.396 31.6055 314.076 31.8613C314.756 32.1171 315.194 32.2487 315.384 32.2487C315.531 32.2487 316.013 32.0952 316.839 31.7955C317.618 31.5178 318.276 31.4009 318.812 31.4447C320.274 31.5617 321.37 32.1391 322.101 33.1769C320.793 33.9663 320.15 35.0772 320.164 36.4952C320.179 37.6061 320.581 38.527 321.37 39.2579C321.721 39.5885 322.127 39.8556 322.569 40.0473C322.481 40.325 322.379 40.5881 322.269 40.844ZM318.922 27.6733C318.922 28.5431 318.608 29.3544 317.972 30.0999C317.212 30.9916 316.283 31.5032 315.289 31.4228C315.274 31.3138 315.267 31.2039 315.267 31.0939C315.267 30.2607 315.633 29.369 316.276 28.6381C316.618 28.2501 317.036 27.9366 317.504 27.7172C317.94 27.4927 318.418 27.3585 318.907 27.3225C318.915 27.4395 318.922 27.5564 318.922 27.6733Z" fill="#272727"/>
<path d="M332.158 36.3929C332.519 36.3929 332.833 36.3491 333.101 36.2613C333.369 36.1688 333.591 36.0396 333.766 35.874C333.947 35.7034 334.081 35.4988 334.168 35.26C334.256 35.0164 334.3 34.746 334.3 34.4487C334.3 34.1661 334.256 33.9103 334.168 33.6813C334.081 33.4523 333.949 33.2574 333.774 33.0966C333.598 32.9358 333.376 32.814 333.108 32.7312C332.84 32.6434 332.524 32.5996 332.158 32.5996H330.689V36.3929H332.158ZM332.158 31.0793C332.865 31.0793 333.476 31.1622 333.993 31.3278C334.509 31.4935 334.936 31.725 335.272 32.0222C335.608 32.3194 335.857 32.6751 336.017 33.0893C336.183 33.5035 336.266 33.9566 336.266 34.4487C336.266 34.9604 336.181 35.4306 336.01 35.8594C335.84 36.2833 335.584 36.6487 335.243 36.9557C334.902 37.2627 334.473 37.5014 333.956 37.672C333.445 37.8425 332.845 37.9278 332.158 37.9278H330.689V41.648H328.723V31.0793H332.158Z" fill="#272727"/>
<path d="M341.514 38.4467C340.993 38.4711 340.554 38.5174 340.198 38.5856C339.843 38.6489 339.558 38.7318 339.343 38.8341C339.129 38.9364 338.975 39.0558 338.883 39.1922C338.79 39.3286 338.744 39.4773 338.744 39.6381C338.744 39.9548 338.836 40.1813 339.022 40.3178C339.212 40.4542 339.458 40.5224 339.76 40.5224C340.13 40.5224 340.449 40.4566 340.717 40.3251C340.99 40.1887 341.256 39.984 341.514 39.7111V38.4467ZM337.377 35.1943C338.24 34.4049 339.277 34.0102 340.491 34.0102C340.929 34.0102 341.321 34.0833 341.667 34.2295C342.013 34.3708 342.306 34.5706 342.544 34.8288C342.783 35.0822 342.964 35.3867 343.085 35.7424C343.212 36.0981 343.275 36.4879 343.275 36.9118V41.648H342.457C342.286 41.648 342.155 41.6236 342.062 41.5749C341.97 41.5213 341.896 41.4166 341.843 41.2606L341.682 40.7198C341.492 40.8903 341.307 41.0414 341.127 41.1729C340.946 41.2996 340.759 41.4068 340.564 41.4945C340.369 41.5822 340.159 41.648 339.935 41.6919C339.716 41.7406 339.472 41.7649 339.204 41.7649C338.888 41.7649 338.595 41.7235 338.327 41.6407C338.059 41.553 337.828 41.4239 337.633 41.2533C337.438 41.0828 337.287 40.8708 337.18 40.6174C337.073 40.3641 337.019 40.0693 337.019 39.7331C337.019 39.543 337.051 39.3554 337.114 39.1703C337.177 38.9803 337.28 38.8 337.421 38.6294C337.567 38.4589 337.755 38.2981 337.984 38.147C338.213 37.996 338.493 37.8644 338.824 37.7524C339.16 37.6403 339.55 37.5501 339.994 37.4819C340.437 37.4088 340.944 37.365 341.514 37.3504V36.9118C341.514 36.41 341.407 36.0396 341.192 35.8009C340.978 35.5573 340.669 35.4354 340.264 35.4354C339.972 35.4354 339.728 35.4696 339.533 35.5378C339.343 35.606 339.175 35.6839 339.029 35.7717C338.883 35.8545 338.749 35.93 338.627 35.9982C338.51 36.0664 338.378 36.1006 338.232 36.1006C338.106 36.1006 337.998 36.0689 337.911 36.0055C337.823 35.9373 337.752 35.8594 337.699 35.7717L337.377 35.1943Z" fill="#272727"/>
<path d="M351.866 34.1491L347.78 43.7091C347.726 43.8358 347.656 43.9308 347.568 43.9942C347.485 44.0624 347.356 44.0965 347.181 44.0965H345.836L347.239 41.0852L344.206 34.1491H345.792C345.933 34.1491 346.043 34.1832 346.121 34.2514C346.204 34.3196 346.265 34.3976 346.304 34.4853L347.897 38.3736C347.951 38.5052 347.994 38.6367 348.029 38.7683C348.068 38.8999 348.104 39.0339 348.138 39.1703C348.182 39.0339 348.226 38.8999 348.27 38.7683C348.314 38.6319 348.362 38.4979 348.416 38.3663L349.922 34.4853C349.961 34.3878 350.024 34.3074 350.112 34.2441C350.204 34.1808 350.306 34.1491 350.419 34.1491H351.866Z" fill="#272727"/>
</g>
<rect x="294.39" y="0.390323" width="70.2581" height="70.2194" stroke="#D3D3D3" stroke-width="0.780645"/>
<defs>
<linearGradient id="paint0_linear_2_1281" x1="132.07" y1="44.5607" x2="132.537" y2="27.9912" gradientUnits="userSpaceOnUse">
<stop stop-color="#222357"/>
<stop offset="1" stop-color="#254AA5"/>
</linearGradient>
<clipPath id="clip0_2_1281">
<rect width="39.0323" height="23.9516" fill="white" transform="translate(16.3936 24.3242)"/>
</clipPath>
<clipPath id="clip1_2_1281">
<rect width="49.9613" height="16.1984" fill="white" transform="translate(109.101 28.1033)"/>
</clipPath>
<clipPath id="clip2_2_1281">
<rect width="42.9355" height="17.1742" fill="white" transform="translate(210.052 27.3225)"/>
</clipPath>
<clipPath id="clip3_2_1281">
<rect width="43.7161" height="17.1742" fill="white" transform="translate(307.958 27.3225)"/>
</clipPath>
</defs>
</svg>
